<svg width="48" height="48" viewBox="0 0 48 48" fill="none" xmlns="http://www.w3.org/2000/svg">
<g clip-path="url(#clip0_491_1817)">
<path d="M28 4H12C9.8 4 8.02 5.8 8.02 8L8 40C8 42.2 9.78 44 11.98 44H36C38.2 44 40 42.2 40 40V16L28 4ZM12 8H26L36 18V35.16L32.32 31.48C34.88 27.6 34.46 22.34 31.04 18.92C29.1 16.98 26.56 16 24 16C21.44 16 18.9 16.98 16.94 18.92C13.04 22.82 13.04 29.14 16.94 33.02C18.88 34.96 21.44 35.94 24 35.94C25.92 35.94 27.84 35.38 29.5 34.28L35.2 40H12V8ZM28.22 30.2C27.1 31.32 25.6 31.96 24 31.96C22.4 31.96 20.9 31.34 19.78 30.2C18.66 29.08 18.02 27.58 18.02 25.98C18.02 24.38 18.64 22.88 19.78 21.76C20.9 20.62 22.4 20 24 20C25.6 20 27.1 20.62 28.22 21.76C29.34 22.88 29.98 24.38 29.98 25.98C29.98 27.58 29.36 29.08 28.22 30.2Z" fill="white"/>
</g>
<defs>
<clipPath id="clip0_491_1817">
<rect width="48" height="48" fill="white"/>
</clipPath>
</defs>
</svg>
