<svg xmlns="http://www.w3.org/2000/svg" width="98.027" height="30" viewBox="0 0 98.027 30"><path d="M9633.883,1168.333h-10.561l0,0-.712,0a.977.977,0,0,0-.977.975v17.109a.979.979,0,0,0,.977.977h3.032a.978.978,0,0,0,.975-.977v-5.367h3.635l2.773,5.474a1.747,1.747,0,0,0,1.418.87h3.841c.536,0,.752-.379.479-.839l-3.367-5.7a4.477,4.477,0,0,0,2.586-1.7,5.164,5.164,0,0,0,.95-3.153v-2.621a4.755,4.755,0,0,0-5.047-5.048m.064,7.414a.854.854,0,0,1-.965.965h-6.368v-4.038h6.368a.854.854,0,0,1,.965.965Zm-34.184-7.414h-3.03a.98.98,0,0,0-.978.977v12.781a.853.853,0,0,1-.966.964h-6.044a.853.853,0,0,1-.965-.964V1169.31a.979.979,0,0,0-.977-.977h-3.031a.979.979,0,0,0-.977.977v13.038a4.754,4.754,0,0,0,5.018,5.048h7.877a4.755,4.755,0,0,0,5.049-5.048V1169.31a.979.979,0,0,0-.977-.977m15.135,0h-10.561l0,0-.713,0a.975.975,0,0,0-.976.975v17.109a.977.977,0,0,0,.976.977h3.032a.979.979,0,0,0,.977-.977v-5.367h3.633l2.774,5.474a1.746,1.746,0,0,0,1.417.87h3.843c.538,0,.754-.379.48-.839l-3.37-5.7a4.481,4.481,0,0,0,2.589-1.7,5.163,5.163,0,0,0,.949-3.153v-2.621a4.756,4.756,0,0,0-5.049-5.048m.064,7.414a.854.854,0,0,1-.967.965h-6.364v-4.038H9614a.854.854,0,0,1,.967.965Zm64.138,8.2a1.723,1.723,0,1,0,1.724,1.723,1.722,1.722,0,0,0-1.724-1.723m0,3.021a1.3,1.3,0,1,1,1.3-1.3,1.3,1.3,0,0,1-1.3,1.3m-23.567-3.916-9.849.007V1179.7l6.879,0a.981.981,0,0,0,.977-.977l-.021-1.72a.978.978,0,0,0-.975-.975l-6.86.008v-3.365l9.76.007a.979.979,0,0,0,.977-.975v-2.389a.98.98,0,0,0-.977-.977h-13.738a.98.98,0,0,0-.977.977v17.109a.979.979,0,0,0,.977.977h13.827a.977.977,0,0,0,.976-.977v-2.388a.978.978,0,0,0-.976-.976m24.066,2.864.022-.016a.647.647,0,0,0,.263-.527v-.014a.659.659,0,0,0-.657-.66h-.768a.091.091,0,0,0-.091.091v1.791h.332a.094.094,0,0,0,.093-.091v-.455h.386l.315.547h.422a.047.047,0,0,0,.036-.013.07.07,0,0,0-.013-.061Zm-.139-.544a.234.234,0,0,1-.233.236h-.434v-.485h.434a.234.234,0,0,1,.233.235Zm-8.325-17.042h-7.876a4.75,4.75,0,0,0-5.016,5.048v13.038a.977.977,0,0,0,.974.977h3.032a.978.978,0,0,0,.976-.977v-5.376h7.976v5.376a.98.98,0,0,0,.975.977h3.032a.979.979,0,0,0,.978-.977v-13.038a4.756,4.756,0,0,0-5.05-5.048m.065,8.293h-7.976v-2.987a.853.853,0,0,1,.965-.965h6.046a.853.853,0,0,1,.965.965Z" transform="translate(-9582.797 -1168.333)" fill="#19456e"/><path d="M9582.8,1206.573h4.243v.3h-1.95v4.947h-.344v-4.947H9582.8Z" transform="translate(-9582.797 -1183.319)" fill="#19456e"/><path d="M9593.605,1211.489v.112a1.072,1.072,0,0,1-.3.787,1.054,1.054,0,0,1-.789.3h-.855a1.032,1.032,0,0,1-1.088-1.087v-1.725a1.027,1.027,0,0,1,1.088-1.087h.855a1.022,1.022,0,0,1,1.086,1.087v.938h-2.7v.8a.746.746,0,0,0,.795.794h.787a.765.765,0,0,0,.573-.217.781.781,0,0,0,.214-.577v-.12Zm-2.7-.944h2.369v-.675a.738.738,0,0,0-.787-.795h-.787a.791.791,0,0,0-.578.214.781.781,0,0,0-.217.581Z" transform="translate(-9585.845 -1184.188)" fill="#19456e"/><path d="M9600.188,1211.452v.15a1.076,1.076,0,0,1-.3.787,1.06,1.06,0,0,1-.791.3h-.855a1.03,1.03,0,0,1-1.086-1.087v-1.725a1.025,1.025,0,0,1,1.086-1.087h.855a1.02,1.02,0,0,1,1.087,1.087v.151h-.329v-.158a.738.738,0,0,0-.788-.795h-.787a.8.8,0,0,0-.578.214.781.781,0,0,0-.216.581v1.739a.747.747,0,0,0,.794.795h.787a.765.765,0,0,0,.574-.218.782.782,0,0,0,.214-.576v-.157Z" transform="translate(-9588.426 -1184.188)" fill="#19456e"/><path d="M9606.441,1212.689v-2.818a.738.738,0,0,0-.788-.8h-.786a.794.794,0,0,0-.578.214.779.779,0,0,0-.217.581v2.818h-.33v-3.9H9604l.03.391a.944.944,0,0,1,.358-.289,1.19,1.19,0,0,1,.5-.1h.786a1.016,1.016,0,0,1,1.086,1.087v2.812Z" transform="translate(-9591.005 -1184.188)" fill="#19456e"/><path d="M9613.478,1211.6a1.079,1.079,0,0,1-.3.788,1.065,1.065,0,0,1-.792.3h-.854a1.028,1.028,0,0,1-1.087-1.087v-1.725a1.025,1.025,0,0,1,1.087-1.087h.854a1.021,1.021,0,0,1,1.088,1.087Zm-.33-1.731a.738.738,0,0,0-.787-.8h-.787a.791.791,0,0,0-.577.214.775.775,0,0,0-.218.581v1.739a.748.748,0,0,0,.795.794h.787a.765.765,0,0,0,.573-.217.784.784,0,0,0,.214-.577Z" transform="translate(-9593.634 -1184.188)" fill="#19456e"/><rect width="0.329" height="5.548" transform="translate(20.894 22.953)" fill="#19456e"/><path d="M9622.451,1211.6a1.078,1.078,0,0,1-.295.788,1.064,1.064,0,0,1-.791.3h-.854a1.03,1.03,0,0,1-1.088-1.087v-1.725a1.026,1.026,0,0,1,1.088-1.087h.854a1.019,1.019,0,0,1,1.086,1.087Zm-.328-1.731a.784.784,0,0,0-.215-.581.776.776,0,0,0-.572-.214h-.789a.789.789,0,0,0-.576.214.778.778,0,0,0-.218.581v1.739a.748.748,0,0,0,.794.794h.789a.764.764,0,0,0,.572-.217.785.785,0,0,0,.215-.577Z" transform="translate(-9597.15 -1184.188)" fill="#19456e"/><path d="M9629.035,1213.1a1.02,1.02,0,0,1-1.087,1.087h-.854a1.02,1.02,0,0,1-1.088-1.087v-.112h.33v.119a.793.793,0,0,0,.214.579.783.783,0,0,0,.581.217h.787a.772.772,0,0,0,.573-.217.793.793,0,0,0,.214-.579v-.756a1.048,1.048,0,0,1-.824.338h-.787a1.026,1.026,0,0,1-1.088-1.087v-1.726a1.02,1.02,0,0,1,1.088-1.087h.787a1.167,1.167,0,0,1,.5.1.978.978,0,0,1,.359.282l.037-.384h.263Zm-2.7-1.492a.783.783,0,0,0,.214.577.774.774,0,0,0,.581.218h.787a.739.739,0,0,0,.787-.756v-1.777a.738.738,0,0,0-.787-.8h-.787a.738.738,0,0,0-.795.8Z" transform="translate(-9599.73 -1184.188)" fill="#19456e"/><path d="M9632.763,1207.278l.831-1.2h.346l-.9,1.2Zm.044.449h.33v3.9h-.33Z" transform="translate(-9602.379 -1183.126)" fill="#19456e"/><path d="M9637.661,1212.689l-.038-.329a.945.945,0,0,1-.772.329h-.959a.939.939,0,0,1-1-1v-.141a.941.941,0,0,1,1-1h.959a.976.976,0,0,1,.742.292v-1.065a.661.661,0,0,0-.7-.7h-.833a.66.66,0,0,0-.7.7v.211h-.329v-.2a.939.939,0,0,1,1-1h.907a.942.942,0,0,1,1,1v2.9Zm-.772-.285a.694.694,0,0,0,.5-.179.7.7,0,0,0,.2-.495v-.24a.7.7,0,0,0-.2-.49.685.685,0,0,0-.5-.185h-.967a.66.66,0,0,0-.705.706v.179a.659.659,0,0,0,.705.7Z" transform="translate(-9603.214 -1184.188)" fill="#19456e"/><path d="M9645.422,1208.79h.264l.029.39a.936.936,0,0,1,.359-.289,1.192,1.192,0,0,1,.5-.1h.786a1.019,1.019,0,0,1,1.088,1.087v1.726a1.025,1.025,0,0,1-1.088,1.087h-.786a1.2,1.2,0,0,1-.473-.089.96.96,0,0,1-.353-.256v1.844h-.33Zm2.7,1.081a.782.782,0,0,0-.215-.581.771.771,0,0,0-.574-.214h-.785a.735.735,0,0,0-.795.758v1.776a.746.746,0,0,0,.795.794h.785a.761.761,0,0,0,.574-.217.781.781,0,0,0,.215-.576Z" transform="translate(-9607.34 -1184.188)" fill="#19456e"/><path d="M9654.561,1212.689l-.036-.329a.941.941,0,0,1-.772.329h-.96a.94.94,0,0,1-1-1v-.141a.942.942,0,0,1,1-1h.96a.976.976,0,0,1,.742.292v-1.065a.659.659,0,0,0-.7-.7h-.834a.66.66,0,0,0-.7.7v.211h-.33v-.2a.942.942,0,0,1,1-1h.907a.941.941,0,0,1,1,1v2.9Zm-.77-.285a.653.653,0,0,0,.7-.674v-.24a.7.7,0,0,0-.2-.49.688.688,0,0,0-.5-.185h-.969a.659.659,0,0,0-.7.706v.179a.657.657,0,0,0,.7.7Z" transform="translate(-9609.838 -1184.188)" fill="#19456e"/><path d="M9660.536,1209.075h-.786a.783.783,0,0,0-.57.2.774.774,0,0,0-.225.555v2.856h-.33v-3.9h.262l.031.39a.932.932,0,0,1,.359-.288,1.189,1.189,0,0,1,.5-.1h.756Z" transform="translate(-9612.514 -1184.188)" fill="#19456e"/><path d="M9665.127,1212.689l-.039-.329a.94.94,0,0,1-.771.329h-.959a.939.939,0,0,1-1-1v-.141a.941.941,0,0,1,1-1h.959a.975.975,0,0,1,.742.292v-1.065a.659.659,0,0,0-.7-.7h-.833a.66.66,0,0,0-.7.7v.211h-.33v-.2a.939.939,0,0,1,1-1h.908a.941.941,0,0,1,1,1v2.9Zm-.772-.285a.653.653,0,0,0,.7-.674v-.24a.7.7,0,0,0-.2-.49.687.687,0,0,0-.5-.185h-.968a.659.659,0,0,0-.7.706v.179a.657.657,0,0,0,.7.7Z" transform="translate(-9613.979 -1184.188)" fill="#19456e"/><path d="M9673.914,1212.689l-1.582-3.9h.354l1.43,3.54,1.433-3.54h.33l-1.574,3.9Z" transform="translate(-9617.885 -1184.188)" fill="#19456e"/><path d="M9679.457,1207.4h.33v-.721h-.33Zm0,4.46h.33v-3.9h-.33Z" transform="translate(-9620.678 -1183.362)" fill="#19456e"/><path d="M9682.876,1212.689l-1.581-3.9h.352l1.433,3.54,1.431-3.54h.33l-1.574,3.9Z" transform="translate(-9621.398 -1184.188)" fill="#19456e"/><path d="M9688.419,1207.4h.329v-.721h-.329Zm0,4.46h.329v-3.9h-.329Z" transform="translate(-9624.19 -1183.362)" fill="#19456e"/><path d="M9692.723,1209.075h-.787a.738.738,0,0,0-.8.758v2.856h-.328v-3.9h.264l.029.39a.947.947,0,0,1,.359-.288,1.189,1.189,0,0,1,.5-.1h.757Z" transform="translate(-9625.127 -1184.188)" fill="#19456e"/><path d="M9701.482,1211.489v.112a1.025,1.025,0,0,1-1.087,1.087h-.854a1.032,1.032,0,0,1-1.088-1.087v-1.725a1.027,1.027,0,0,1,1.088-1.087h.854a1.021,1.021,0,0,1,1.087,1.087v.938h-2.7v.8a.746.746,0,0,0,.795.794h.787a.767.767,0,0,0,.574-.217.784.784,0,0,0,.212-.577v-.12Zm-2.7-.944h2.368v-.675a.735.735,0,0,0-.786-.795h-.787a.793.793,0,0,0-.578.214.781.781,0,0,0-.217.581Z" transform="translate(-9628.122 -1184.188)" fill="#19456e"/><rect width="0.33" height="5.548" transform="translate(74.409 22.953)" fill="#19456e"/><path d="M9713.684,1212.689l-.037-.329a.948.948,0,0,1-.771.329h-.961a.942.942,0,0,1-1-1v-.141a.943.943,0,0,1,1-1h.961a.976.976,0,0,1,.74.292v-1.065a.66.66,0,0,0-.705-.7h-.832a.661.661,0,0,0-.7.7v.211h-.329v-.2a.939.939,0,0,1,1-1h.908a.941.941,0,0,1,1,1v2.9Zm-.773-.285a.7.7,0,0,0,.5-.179.705.705,0,0,0,.2-.495v-.24a.706.706,0,0,0-.2-.49.688.688,0,0,0-.5-.185h-.967a.66.66,0,0,0-.7.706v.179a.659.659,0,0,0,.7.7Z" transform="translate(-9633.006 -1184.188)" fill="#19456e"/><path d="M9720.651,1213.1a1.018,1.018,0,0,1-1.087,1.087h-.854a1.019,1.019,0,0,1-1.087-1.087v-.112h.33v.119a.793.793,0,0,0,.214.579.783.783,0,0,0,.581.217h.787a.772.772,0,0,0,.573-.217.789.789,0,0,0,.214-.579v-.756a1.048,1.048,0,0,1-.824.338h-.788a1.025,1.025,0,0,1-1.087-1.087v-1.726a1.019,1.019,0,0,1,1.087-1.087h.788a1.151,1.151,0,0,1,.493.1.947.947,0,0,1,.359.282l.039-.384h.262Zm-2.7-1.492a.783.783,0,0,0,.214.577.774.774,0,0,0,.581.218h.787a.739.739,0,0,0,.787-.756v-1.777a.738.738,0,0,0-.787-.8h-.787a.738.738,0,0,0-.795.8Z" transform="translate(-9635.635 -1184.188)" fill="#19456e"/><path d="M9724.782,1208.79v2.82a.789.789,0,0,0,.214.576.779.779,0,0,0,.581.217h.788a.768.768,0,0,0,.573-.217.787.787,0,0,0,.212-.576v-2.82h.33v3.9h-.261l-.03-.382a1.056,1.056,0,0,1-.367.28,1.169,1.169,0,0,1-.5.1h-.787a1.02,1.02,0,0,1-1.087-1.087v-2.812Z" transform="translate(-9638.312 -1184.188)" fill="#19456e"/><path d="M9733.717,1212.689l-.039-.329a.942.942,0,0,1-.771.329h-.96a.939.939,0,0,1-1-1v-.141a.941.941,0,0,1,1-1h.96a.976.976,0,0,1,.741.292v-1.065a.659.659,0,0,0-.705-.7h-.83a.659.659,0,0,0-.706.7v.211h-.329v-.2a.939.939,0,0,1,1-1h.907a.983.983,0,0,1,.724.274.972.972,0,0,1,.273.723v2.9Zm-.773-.285a.691.691,0,0,0,.5-.179.7.7,0,0,0,.2-.495v-.24a.7.7,0,0,0-.2-.49.682.682,0,0,0-.5-.185h-.967a.658.658,0,0,0-.7.706v.179a.656.656,0,0,0,.7.7Z" transform="translate(-9640.858 -1184.188)" fill="#19456e"/></svg>